<svg width="419" height="68" viewBox="0 0 419 68" fill="none" xmlns="http://www.w3.org/2000/svg">
<path fill-rule="evenodd" clip-rule="evenodd" d="M66 46.1518C66 27.8426 51.2254 13 33 13C14.7746 13 0 27.8426 0 46.1518H16.5C16.5 36.9972 23.8873 29.5759 33 29.5759C42.1127 29.5759 49.5 36.9972 49.5 46.1518H66Z" fill="black"/>
<path fill-rule="evenodd" clip-rule="evenodd" d="M22.7658 46.1518C22.7658 51.83 27.3478 56.433 33 56.433C38.6522 56.433 43.2342 51.83 43.2342 46.1518H22.7658Z" fill="black"/>
<path d="M73.53 29.762C73.53 26.358 74.1433 23.414 75.37 20.93C76.6273 18.446 78.4213 16.5293 80.752 15.18C83.0827 13.8 85.858 13.11 89.078 13.11C92.2673 13.11 95.0273 13.8 97.358 15.18C99.6887 16.5293 101.483 18.446 102.74 20.93C104.028 23.414 104.672 26.3427 104.672 29.716C104.672 33.12 104.028 36.0793 102.74 38.594C101.483 41.078 99.6887 43.01 97.358 44.39C95.0273 45.77 92.2673 46.46 89.078 46.46C85.858 46.46 83.0827 45.77 80.752 44.39C78.452 43.01 76.6733 41.078 75.416 38.594C74.1587 36.0793 73.53 33.1353 73.53 29.762ZM79.74 29.762C79.74 33.4113 80.522 36.2633 82.086 38.318C83.65 40.3727 85.9807 41.4 89.078 41.4C92.0833 41.4 94.3987 40.3727 96.024 38.318C97.6493 36.2633 98.462 33.4113 98.462 29.762C98.462 26.082 97.6493 23.23 96.024 21.206C94.4293 19.182 92.114 18.17 89.078 18.17C85.9807 18.17 83.65 19.182 82.086 21.206C80.522 23.23 79.74 26.082 79.74 29.762ZM110.795 46V13.57H124.963C128.52 13.57 131.265 14.4133 133.197 16.1C135.16 17.7867 136.141 20.1327 136.141 23.138C136.141 25.1313 135.696 26.8333 134.807 28.244C133.948 29.6547 132.706 30.7433 131.081 31.51C129.456 32.246 127.539 32.614 125.331 32.614L125.975 31.74H127.539C128.827 31.74 129.977 32.0773 130.989 32.752C132.001 33.4267 132.829 34.454 133.473 35.834L138.211 46H131.679L126.895 35.466C126.466 34.3927 125.806 33.6873 124.917 33.35C124.058 33.0127 123.016 32.844 121.789 32.844H116.729V46H110.795ZM116.729 28.474H123.997C126.082 28.474 127.662 28.0447 128.735 27.186C129.839 26.2967 130.391 25.0087 130.391 23.322C130.391 21.6353 129.839 20.3627 128.735 19.504C127.662 18.6453 126.082 18.216 123.997 18.216H116.729V28.474ZM157.957 46.46C154.584 46.46 151.686 45.7853 149.263 44.436C146.871 43.056 145.031 41.124 143.743 38.64C142.455 36.1253 141.811 33.166 141.811 29.762C141.811 26.358 142.455 23.414 143.743 20.93C145.031 18.446 146.871 16.5293 149.263 15.18C151.686 13.8 154.584 13.11 157.957 13.11C160.227 13.11 162.266 13.432 164.075 14.076C165.915 14.72 167.495 15.6707 168.813 16.928L166.881 21.62C165.44 20.4547 164.045 19.6267 162.695 19.136C161.377 18.6147 159.859 18.354 158.141 18.354C154.86 18.354 152.345 19.3507 150.597 21.344C148.88 23.3067 148.021 26.1127 148.021 29.762C148.021 33.4113 148.88 36.2327 150.597 38.226C152.345 40.2193 154.86 41.216 158.141 41.216C159.859 41.216 161.377 40.9707 162.695 40.48C164.045 39.9587 165.44 39.1 166.881 37.904L168.813 42.596C167.495 43.8227 165.915 44.7733 164.075 45.448C162.266 46.1227 160.227 46.46 157.957 46.46ZM174.359 46V13.57H180.293V27.094H196.899V13.57H202.833V46H196.899V32.016H180.293V46H174.359ZM209.983 46V13.57H231.833V18.216H215.687V27.186H230.775V31.878H215.687V41.308H231.833V46H209.983ZM248.207 46.46C245.6 46.46 243.193 46.138 240.985 45.494C238.807 44.8193 236.937 43.8993 235.373 42.734L237.213 38.088C238.255 38.824 239.344 39.4527 240.479 39.974C241.613 40.4647 242.825 40.848 244.113 41.124C245.401 41.3693 246.765 41.492 248.207 41.492C250.629 41.492 252.377 41.0933 253.451 40.296C254.524 39.4987 255.061 38.456 255.061 37.168C255.061 36.0333 254.693 35.1747 253.957 34.592C253.221 33.9787 251.902 33.4727 250.001 33.074L244.803 32.016C241.828 31.4027 239.605 30.3753 238.133 28.934C236.661 27.4927 235.925 25.5607 235.925 23.138C235.925 21.114 236.461 19.3507 237.535 17.848C238.608 16.3453 240.111 15.18 242.043 14.352C243.975 13.524 246.229 13.11 248.805 13.11C251.105 13.11 253.236 13.4473 255.199 14.122C257.161 14.766 258.802 15.7013 260.121 16.928L258.281 21.344C256.962 20.24 255.521 19.4273 253.957 18.906C252.393 18.354 250.645 18.078 248.713 18.078C246.535 18.078 244.833 18.5073 243.607 19.366C242.411 20.194 241.813 21.344 241.813 22.816C241.813 23.9507 242.181 24.8553 242.917 25.53C243.683 26.2047 244.971 26.726 246.781 27.094L251.933 28.106C254.999 28.7193 257.269 29.7313 258.741 31.142C260.213 32.522 260.949 34.3927 260.949 36.754C260.949 38.686 260.427 40.388 259.385 41.86C258.342 43.3013 256.87 44.436 254.969 45.264C253.067 46.0613 250.813 46.46 248.207 46.46ZM273.501 46V18.446H262.783V13.57H290.153V18.446H279.435V46H273.501ZM294.346 46V13.57H308.514C312.071 13.57 314.816 14.4133 316.748 16.1C318.71 17.7867 319.692 20.1327 319.692 23.138C319.692 25.1313 319.247 26.8333 318.358 28.244C317.499 29.6547 316.257 30.7433 314.632 31.51C313.006 32.246 311.09 32.614 308.882 32.614L309.526 31.74H311.09C312.378 31.74 313.528 32.0773 314.54 32.752C315.552 33.4267 316.38 34.454 317.024 35.834L321.762 46H315.23L310.446 35.466C310.016 34.3927 309.357 33.6873 308.468 33.35C307.609 33.0127 306.566 32.844 305.34 32.844H300.28V46H294.346ZM300.28 28.474H307.548C309.633 28.474 311.212 28.0447 312.286 27.186C313.39 26.2967 313.942 25.0087 313.942 23.322C313.942 21.6353 313.39 20.3627 312.286 19.504C311.212 18.6453 309.633 18.216 307.548 18.216H300.28V28.474ZM322.473 46L337.147 13.57H342.115L356.973 46H350.947L346.991 36.892L349.383 38.502H329.925L332.409 36.892L328.453 46H322.473ZM339.585 19.918L333.099 35.282L331.903 33.856H347.359L346.393 35.282L339.769 19.918H339.585Z" fill="black"/>
</svg>
