<svg width="386" height="68" viewBox="0 0 386 68" fill="none" xmlns="http://www.w3.org/2000/svg">
<path fill-rule="evenodd" clip-rule="evenodd" d="M81 42.9107C81 20.3164 62.8675 2 40.5 2C18.1325 2 0 20.3164 0 42.9107H20.25C20.25 31.6135 29.3162 22.4554 40.5 22.4554C51.6838 22.4554 60.75 31.6135 60.75 42.9107H81Z" fill="#264B68"/>
<path fill-rule="evenodd" clip-rule="evenodd" d="M27.9399 42.9107C27.9399 49.9178 33.5632 55.5982 40.5 55.5982C47.4368 55.5982 53.0601 49.9178 53.0601 42.9107H27.9399Z" fill="#264B68"/>
<path d="M99.53 29.762C99.53 26.358 100.143 23.414 101.37 20.93C102.627 18.446 104.421 16.5293 106.752 15.18C109.083 13.8 111.858 13.11 115.078 13.11C118.267 13.11 121.027 13.8 123.358 15.18C125.689 16.5293 127.483 18.446 128.74 20.93C130.028 23.414 130.672 26.3427 130.672 29.716C130.672 33.12 130.028 36.0793 128.74 38.594C127.483 41.078 125.689 43.01 123.358 44.39C121.027 45.77 118.267 46.46 115.078 46.46C111.858 46.46 109.083 45.77 106.752 44.39C104.452 43.01 102.673 41.078 101.416 38.594C100.159 36.0793 99.53 33.1353 99.53 29.762ZM105.74 29.762C105.74 33.4113 106.522 36.2633 108.086 38.318C109.65 40.3727 111.981 41.4 115.078 41.4C118.083 41.4 120.399 40.3727 122.024 38.318C123.649 36.2633 124.462 33.4113 124.462 29.762C124.462 26.082 123.649 23.23 122.024 21.206C120.429 19.182 118.114 18.17 115.078 18.17C111.981 18.17 109.65 19.182 108.086 21.206C106.522 23.23 105.74 26.082 105.74 29.762ZM136.795 46V13.57H150.963C154.52 13.57 157.265 14.4133 159.197 16.1C161.16 17.7867 162.141 20.1327 162.141 23.138C162.141 25.1313 161.696 26.8333 160.807 28.244C159.948 29.6547 158.706 30.7433 157.081 31.51C155.456 32.246 153.539 32.614 151.331 32.614L151.975 31.74H153.539C154.827 31.74 155.977 32.0773 156.989 32.752C158.001 33.4267 158.829 34.454 159.473 35.834L164.211 46H157.679L152.895 35.466C152.466 34.3927 151.806 33.6873 150.917 33.35C150.058 33.0127 149.016 32.844 147.789 32.844H142.729V46H136.795ZM142.729 28.474H149.997C152.082 28.474 153.662 28.0447 154.735 27.186C155.839 26.2967 156.391 25.0087 156.391 23.322C156.391 21.6353 155.839 20.3627 154.735 19.504C153.662 18.6453 152.082 18.216 149.997 18.216H142.729V28.474ZM183.957 46.46C180.584 46.46 177.686 45.7853 175.263 44.436C172.871 43.056 171.031 41.124 169.743 38.64C168.455 36.1253 167.811 33.166 167.811 29.762C167.811 26.358 168.455 23.414 169.743 20.93C171.031 18.446 172.871 16.5293 175.263 15.18C177.686 13.8 180.584 13.11 183.957 13.11C186.227 13.11 188.266 13.432 190.075 14.076C191.915 14.72 193.495 15.6707 194.813 16.928L192.881 21.62C191.44 20.4547 190.045 19.6267 188.695 19.136C187.377 18.6147 185.859 18.354 184.141 18.354C180.86 18.354 178.345 19.3507 176.597 21.344C174.88 23.3067 174.021 26.1127 174.021 29.762C174.021 33.4113 174.88 36.2327 176.597 38.226C178.345 40.2193 180.86 41.216 184.141 41.216C185.859 41.216 187.377 40.9707 188.695 40.48C190.045 39.9587 191.44 39.1 192.881 37.904L194.813 42.596C193.495 43.8227 191.915 44.7733 190.075 45.448C188.266 46.1227 186.227 46.46 183.957 46.46ZM200.359 46V13.57H206.293V27.094H222.899V13.57H228.833V46H222.899V32.016H206.293V46H200.359ZM235.983 46V13.57H257.833V18.216H241.687V27.186H256.775V31.878H241.687V41.308H257.833V46H235.983ZM274.207 46.46C271.6 46.46 269.193 46.138 266.985 45.494C264.807 44.8193 262.937 43.8993 261.373 42.734L263.213 38.088C264.255 38.824 265.344 39.4527 266.479 39.974C267.613 40.4647 268.825 40.848 270.113 41.124C271.401 41.3693 272.765 41.492 274.207 41.492C276.629 41.492 278.377 41.0933 279.451 40.296C280.524 39.4987 281.061 38.456 281.061 37.168C281.061 36.0333 280.693 35.1747 279.957 34.592C279.221 33.9787 277.902 33.4727 276.001 33.074L270.803 32.016C267.828 31.4027 265.605 30.3753 264.133 28.934C262.661 27.4927 261.925 25.5607 261.925 23.138C261.925 21.114 262.461 19.3507 263.535 17.848C264.608 16.3453 266.111 15.18 268.043 14.352C269.975 13.524 272.229 13.11 274.805 13.11C277.105 13.11 279.236 13.4473 281.199 14.122C283.161 14.766 284.802 15.7013 286.121 16.928L284.281 21.344C282.962 20.24 281.521 19.4273 279.957 18.906C278.393 18.354 276.645 18.078 274.713 18.078C272.535 18.078 270.833 18.5073 269.607 19.366C268.411 20.194 267.813 21.344 267.813 22.816C267.813 23.9507 268.181 24.8553 268.917 25.53C269.683 26.2047 270.971 26.726 272.781 27.094L277.933 28.106C280.999 28.7193 283.269 29.7313 284.741 31.142C286.213 32.522 286.949 34.3927 286.949 36.754C286.949 38.686 286.427 40.388 285.385 41.86C284.342 43.3013 282.87 44.436 280.969 45.264C279.067 46.0613 276.813 46.46 274.207 46.46ZM299.501 46V18.446H288.783V13.57H316.153V18.446H305.435V46H299.501ZM320.346 46V13.57H334.514C338.071 13.57 340.816 14.4133 342.748 16.1C344.71 17.7867 345.692 20.1327 345.692 23.138C345.692 25.1313 345.247 26.8333 344.358 28.244C343.499 29.6547 342.257 30.7433 340.632 31.51C339.006 32.246 337.09 32.614 334.882 32.614L335.526 31.74H337.09C338.378 31.74 339.528 32.0773 340.54 32.752C341.552 33.4267 342.38 34.454 343.024 35.834L347.762 46H341.23L336.446 35.466C336.016 34.3927 335.357 33.6873 334.468 33.35C333.609 33.0127 332.566 32.844 331.34 32.844H326.28V46H320.346ZM326.28 28.474H333.548C335.633 28.474 337.212 28.0447 338.286 27.186C339.39 26.2967 339.942 25.0087 339.942 23.322C339.942 21.6353 339.39 20.3627 338.286 19.504C337.212 18.6453 335.633 18.216 333.548 18.216H326.28V28.474ZM348.473 46L363.147 13.57H368.115L382.973 46H376.947L372.991 36.892L375.383 38.502H355.925L358.409 36.892L354.453 46H348.473ZM365.585 19.918L359.099 35.282L357.903 33.856H373.359L372.393 35.282L365.769 19.918H365.585Z" fill="#264B68"/>
</svg>
